<svg width="118" height="137" viewBox="0 0 118 137" fill="none" xmlns="http://www.w3.org/2000/svg">
<g filter="url(#filter0_d_11_27)">
<path fill-rule="evenodd" clip-rule="evenodd" d="M96.3887 0C104.458 0 111 6.54183 111 14.6113V57.7715L110.85 57.7021C109.061 56.9054 107.081 56.6041 105.47 56.5381C105.007 56.5191 104.513 56.52 104 56.542V14.6113C104 10.4078 100.592 7 96.3887 7H18.6113C14.4078 7 11 10.4078 11 14.6113V92.3887C11 96.5922 14.4078 100 18.6113 100H39.832C39.8158 100.453 39.8037 100.909 39.8027 101.368C39.6442 101.565 39.3902 101.853 38.9717 102.28C37.8618 103.414 37.2448 103.965 33.4014 107H18.6113C10.5418 107 4 100.458 4 92.3887V14.6113C4 6.54183 10.5418 0 18.6113 0H96.3887ZM102.435 105.162C102.027 105.509 101.624 105.846 101.229 106.178L101.227 106.179C101.623 105.847 102.026 105.508 102.435 105.161V105.162ZM109.712 72.2656C109.64 72.3548 109.571 72.4355 109.509 72.5029L108.943 73.1484L109.492 73.2666C109.651 73.3016 109.811 73.3467 109.972 73.4004C109.811 73.3466 109.651 73.3017 109.491 73.2666L108.943 73.1484L109.508 72.5029C109.571 72.4354 109.64 72.3549 109.712 72.2656Z" fill="white"/>
</g>
<g filter="url(#filter1_d_11_27)">
<path d="M57.514 128.258L37.514 114.758L41.514 110.758L48.014 104.758L49.014 98.2578L51.014 90.2578L54.014 87.2578L57.514 81.7578L62.014 75.7578L65.014 71.2578V67.7578L66.514 65.7578H69.514L73.014 68.7578L74.014 72.7578L73.014 78.7578L83.014 68.7578L88.014 64.2578L91.014 62.7578H94.514L97.014 64.7578L97.514 67.7578L102.514 65.7578L107.514 64.2578L109.014 67.7578V71.2578L107.514 74.7578L110.514 75.7578L113.514 79.7578L110.514 82.7578L109.014 86.2578H110.514L113.514 88.7578V92.7578L109.014 98.2578L101.014 104.758L91.014 111.758L85.014 115.758L74.514 119.758L68.514 121.758L62.014 124.758L57.514 128.258Z" fill="white" fill-opacity="0.02" shape-rendering="crispEdges"/>
</g>
<path d="M53.757 128.244C52.0783 127.14 49.0368 125.138 46.9924 123.797C42.588 120.861 36.5713 116.907 34.7763 115.753C33.6295 115.023 33.2306 114.633 33.6461 114.633C33.7292 114.633 34.2444 114.277 34.7929 113.836C35.3414 113.377 36.5214 112.444 37.4023 111.748C41.4245 108.575 42.322 107.811 43.7514 106.352C45.7791 104.281 46.2944 103.246 46.2944 101.328C46.2944 96.3728 47.3082 92.2829 49.3692 88.9057C50.3332 87.3275 51.1476 86.3092 53.8567 83.2376C56.7321 79.9792 57.8457 78.5537 59.1255 76.5342C61.1864 73.3098 62.167 71.0696 62.8485 68.1677C63.3139 66.1142 63.6795 65.3166 64.5106 64.502C65.7405 63.2801 67.3361 62.8559 69.1311 63.2801C70.7433 63.6705 71.8402 64.2984 73.0536 65.5712C74.7489 67.3191 75.5466 69.3726 75.5466 71.9182V73.2589L77.3417 71.5957C78.3223 70.6793 80.1007 68.9992 81.2807 67.8792C87.5633 61.9225 89.2254 60.7346 91.785 60.3273C93.8293 60.0048 95.7905 60.6497 97.2365 62.1431C97.9678 62.8729 98.8155 64.3493 98.8155 64.8754C98.8155 65.2318 99.0648 65.113 100.245 64.1456C100.876 63.6365 101.807 63.0426 102.306 62.8559C104.134 62.1431 107.325 62.2789 109.054 63.1274C110.633 63.9081 111.514 65.8257 111.53 68.4731C111.53 69.9496 111.497 70.1532 111.048 70.9169C110.799 71.3751 110.317 72.037 110.001 72.3764L109.436 73.0213L109.985 73.1401C111.68 73.5134 113.508 74.9899 114.239 76.5851C114.622 77.4166 114.688 77.773 114.688 79.1816C114.688 80.658 114.638 80.8956 114.14 81.9308C113.741 82.7454 113.309 83.3054 112.527 84.0182L111.447 84.9855L112.311 85.3928C113.458 85.9359 114.655 87.2426 115.12 88.4645C115.403 89.1942 115.486 89.7882 115.486 90.9083C115.486 93.1144 115.154 93.6914 112.062 96.7971C109.752 99.1051 108.738 100.021 104.4 103.772C96.4055 110.679 90.688 114.769 85.2697 117.45C81.181 119.47 79.0868 120.233 70.8098 122.711C67.0036 123.848 63.0646 125.919 58.4939 129.16C57.6462 129.754 56.9316 130.246 56.8983 130.246C56.8651 130.246 55.4523 129.347 53.757 128.244ZM59.4745 124.12C62.9316 121.863 66.289 120.233 69.2308 119.385C81.6298 115.804 87.1811 113.038 95.5745 106.25C96.9374 105.147 98.4498 103.908 98.8986 103.534C99.364 103.144 101.076 101.685 102.721 100.293C108.505 95.4055 111.63 92.3338 111.879 91.2816C112.178 90.0937 111.281 88.7021 110.001 88.3457C108.555 87.9384 107.525 88.4475 104.949 90.8064C100.228 95.1509 95.1091 99.716 94.4775 100.157C93.3972 100.887 92.2504 100.649 91.7517 99.5802C91.2365 98.4941 91.3528 98.3583 97.8515 92.4017C101.159 89.3639 103.935 86.8014 104.034 86.7165C104.134 86.6147 105.647 85.2231 107.408 83.6109C110.051 81.1671 110.649 80.5392 110.882 79.9113C111.563 78.0785 110.101 76.4493 107.774 76.4493C107.358 76.4493 106.76 76.6021 106.411 76.7887C105.863 77.0942 103.087 79.5719 97.2365 85.0025C90.821 90.9592 88.2448 93.2332 87.7295 93.4369C87.1312 93.6745 86.1672 93.2502 85.8016 92.6053C85.2032 91.5701 85.4359 91.1289 87.7129 89.1603C97.1701 80.8956 99.4637 78.8252 102.721 75.5838C103.918 74.3959 105.497 72.8855 106.245 72.2067C106.993 71.5279 107.708 70.7302 107.824 70.4417C107.94 70.1532 108.04 69.3217 108.04 68.6089C108.04 67.0646 107.724 66.4876 106.694 66.1312C105.896 65.8427 104.201 65.9615 103.436 66.3688C102.106 67.0476 99.5302 69.3726 90.0066 78.4858C80.7988 87.2935 81.5134 86.6486 80.6159 86.7674C79.9345 86.8353 79.8181 86.7844 79.2863 86.2414C78.8375 85.7831 78.7046 85.5116 78.7046 85.0195C78.7046 84.4425 78.8708 84.2388 81.2475 81.8969C82.627 80.5223 85.8348 77.4166 88.3445 75.0068C96.0232 67.6076 95.6576 67.998 95.6576 67.0646C95.6576 66.0633 95.1922 65.079 94.4609 64.536C94.0121 64.2135 93.6963 64.1456 92.749 64.1456C90.8376 64.1456 90.3888 64.502 84.2725 70.4926C83.2586 71.4769 81.3639 73.2928 80.0342 74.4977C76.5439 77.7051 73.6685 80.4374 70.6602 83.3733C68.2169 85.7492 67.9676 85.9529 67.4025 85.9529C66.2723 85.9529 65.541 84.9855 65.9067 83.9843C66.0064 83.7297 66.6214 82.9491 67.2696 82.2363C69.5632 79.7246 71.1256 76.8566 71.7571 74.0395C72.0896 72.5461 72.1062 72.2576 71.9233 71.1884C71.807 70.5266 71.5743 69.695 71.4081 69.3556C70.7267 67.998 69.1311 66.7931 68.0175 66.7761C67.2862 66.7761 66.8208 67.387 66.4884 68.8126C65.1255 74.5995 62.5659 78.944 56.3665 85.9529C53.5077 89.1942 52.9094 89.9579 52.2279 91.2137C50.8484 93.7763 50.3664 95.8297 50.1337 100.378C50.0008 102.94 49.9509 103.297 49.5021 104.4C48.3387 107.2 46.5271 109.236 42.2888 112.478C40.9758 113.496 39.8788 114.379 39.8622 114.429C39.8289 114.497 40.5769 115.04 41.5242 115.651C42.455 116.245 45.0977 117.976 47.3747 119.47C55.4689 124.799 56.8152 125.664 56.9482 125.664C57.0313 125.664 58.1615 124.968 59.4745 124.12Z" fill="white"/>
<g filter="url(#filter2_d_11_27)">
<path d="M29.493 47.373L46.493 64.873L80.493 29.873" stroke="white" stroke-width="7" stroke-linecap="round" stroke-linejoin="round" shape-rendering="crispEdges"/>
</g>
<defs>
<filter id="filter0_d_11_27" x="0" y="0" width="115" height="115" filterUnits="userSpaceOnUse" color-interpolation-filters="sRGB">
<feFlood flood-opacity="0" result="BackgroundImageFix"/>
<feColorMatrix in="SourceAlpha" type="matrix" values="0 0 0 0 0 0 0 0 0 0 0 0 0 0 0 0 0 0 127 0" result="hardAlpha"/>
<feOffset dy="4"/>
<feGaussianBlur stdDeviation="2"/>
<feComposite in2="hardAlpha" operator="out"/>
<feColorMatrix type="matrix" values="0 0 0 0 0 0 0 0 0 0 0 0 0 0 0 0 0 0 0.25 0"/>
<feBlend mode="normal" in2="BackgroundImageFix" result="effect1_dropShadow_11_27"/>
<feBlend mode="normal" in="SourceGraphic" in2="effect1_dropShadow_11_27" result="shape"/>
</filter>
<filter id="filter1_d_11_27" x="33.514" y="62.7578" width="84" height="73.5" filterUnits="userSpaceOnUse" color-interpolation-filters="sRGB">
<feFlood flood-opacity="0" result="BackgroundImageFix"/>
<feColorMatrix in="SourceAlpha" type="matrix" values="0 0 0 0 0 0 0 0 0 0 0 0 0 0 0 0 0 0 127 0" result="hardAlpha"/>
<feOffset dy="4"/>
<feGaussianBlur stdDeviation="2"/>
<feComposite in2="hardAlpha" operator="out"/>
<feColorMatrix type="matrix" values="0 0 0 0 0 0 0 0 0 0 0 0 0 0 0 0 0 0 0.25 0"/>
<feBlend mode="normal" in2="BackgroundImageFix" result="effect1_dropShadow_11_27"/>
<feBlend mode="normal" in="SourceGraphic" in2="effect1_dropShadow_11_27" result="shape"/>
</filter>
<filter id="filter2_d_11_27" x="21.993" y="26.373" width="66" height="50" filterUnits="userSpaceOnUse" color-interpolation-filters="sRGB">
<feFlood flood-opacity="0" result="BackgroundImageFix"/>
<feColorMatrix in="SourceAlpha" type="matrix" values="0 0 0 0 0 0 0 0 0 0 0 0 0 0 0 0 0 0 127 0" result="hardAlpha"/>
<feOffset dy="4"/>
<feGaussianBlur stdDeviation="2"/>
<feComposite in2="hardAlpha" operator="out"/>
<feColorMatrix type="matrix" values="0 0 0 0 0 0 0 0 0 0 0 0 0 0 0 0 0 0 0.25 0"/>
<feBlend mode="normal" in2="BackgroundImageFix" result="effect1_dropShadow_11_27"/>
<feBlend mode="normal" in="SourceGraphic" in2="effect1_dropShadow_11_27" result="shape"/>
</filter>
</defs>
</svg>
