<svg width="115" height="97" viewBox="0 0 115 97" fill="none" xmlns="http://www.w3.org/2000/svg">
<path d="M21 35.5002L31.3334 46.0002L52 25.0002" stroke="#E8552D" stroke-width="8" stroke-linecap="round" stroke-linejoin="round"/>
<g filter="url(#filter0_d_2_123)">
<path d="M54.1777 88.6583L34.1777 75.1583L38.1777 71.1583L44.6777 65.1583L45.6777 58.6583L47.6777 50.6583L50.6777 47.6583L54.1777 42.1583L58.6777 36.1583L61.6777 31.6583V28.1583L63.1777 26.1583H66.1777L69.6777 29.1583L70.6777 33.1583L69.6777 39.1583L79.6777 29.1583L84.6777 24.6583L87.6777 23.1583H91.1777L93.6777 25.1583L94.1777 28.1583L99.1777 26.1583L104.178 24.6583L105.678 28.1583V31.6583L104.178 35.1583L107.178 36.1583L110.178 40.1583L107.178 43.1583L105.678 46.6583H107.178L110.178 49.1583V53.1583L105.678 58.6583L97.6777 65.1583L87.6777 72.1583L81.6777 76.1583L71.1777 80.1583L65.1777 82.1583L58.6777 85.1583L54.1777 88.6583Z" fill="#0D1117"/>
</g>
<path d="M61.667 0C67.3736 0.000175231 71.9997 4.62644 72 10.333V22.8975C70.5182 21.5668 68.9458 20.7577 66.9414 20.2725L66.9316 20.2695L66.9209 20.2676L66.6357 20.2041C66.4236 20.1603 66.2116 20.1234 66 20.0938V10.333C65.9997 7.94015 64.0599 6.00017 61.667 6H10.333C7.94013 6.00019 6.00031 7.94016 6 10.333V61.667C6.00016 64.06 7.94003 65.9998 10.333 66H36.1025C35.254 66.7356 34.0406 67.7147 31.7939 69.4873L31.793 69.4893C30.9615 70.146 29.7752 71.084 29.1553 71.5986C29.0319 71.6979 28.9159 71.7856 28.8184 71.8584C28.7936 71.869 28.7681 71.8783 28.7432 71.8896C28.67 71.9229 28.5961 71.9601 28.5215 72H10.333C4.62633 71.9998 0.000158738 67.3737 0 61.667V10.333C0.000309742 4.62645 4.62642 0.000192488 10.333 0H61.667ZM44.3076 66L38.1777 71.6582L37.8359 72H35.0615C38.4188 69.3431 39.2907 68.5899 40.6211 67.2314C41.0646 66.7786 41.4339 66.3739 41.7432 66H44.3076ZM66.001 24.1602C67.6129 24.5505 68.7097 25.1785 69.9229 26.4512C70.9193 27.4786 71.6034 28.6123 72 29.8887V37.3359L69.6777 39.6582L70.6777 33.6582L69.6777 29.6582L66.1777 26.6582H66V24.1592L66.001 24.1602Z" fill="white"/>
<path d="M50.6265 89.1235C48.9478 88.0204 45.9063 86.0178 43.8619 84.6772C39.4575 81.7412 33.4408 77.7871 31.6458 76.6331C30.499 75.9034 30.1001 75.513 30.5156 75.513C30.5987 75.513 31.1139 75.1567 31.6624 74.7154C32.2109 74.2572 33.391 73.3238 34.2718 72.628C38.294 69.4545 39.1915 68.6909 40.6209 67.2314C42.6486 65.161 43.1639 64.1258 43.1639 62.2081C43.1639 57.2527 44.1777 53.1628 46.2387 49.7856C47.2027 48.2074 48.0171 47.1891 50.7263 44.1174C53.6016 40.8591 54.7152 39.4336 55.995 37.4141C58.0559 34.1896 59.0366 31.9495 59.718 29.0476C60.1834 26.9941 60.549 26.1965 61.3801 25.3819C62.61 24.16 64.2056 23.7358 66.0006 24.16C67.6128 24.5504 68.7098 25.1783 69.9231 26.4511C71.6184 28.199 72.4161 30.2525 72.4161 32.7981V34.1387L74.2112 32.4756C75.1918 31.5592 76.9702 29.8791 78.1503 28.7591C84.4328 22.8024 86.0949 21.6144 88.6545 21.2071C90.6988 20.8847 92.6601 21.5296 94.106 23.023C94.8374 23.7527 95.685 25.2292 95.685 25.7553C95.685 26.1116 95.9343 25.9929 97.1144 25.0255C97.7459 24.5164 98.6767 23.9224 99.1753 23.7358C101.004 23.023 104.195 23.1588 105.923 24.0073C107.502 24.7879 108.383 26.7056 108.4 29.353C108.4 30.8295 108.367 31.0331 107.918 31.7968C107.668 32.255 107.186 32.9169 106.871 33.2563L106.306 33.9011L106.854 34.0199C108.549 34.3933 110.378 35.8697 111.109 37.465C111.491 38.2965 111.558 38.6529 111.558 40.0615C111.558 41.5379 111.508 41.7755 111.009 42.8107C110.61 43.6253 110.178 44.1853 109.397 44.8981L108.317 45.8654L109.181 46.2727C110.328 46.8158 111.524 48.1225 111.99 49.3444C112.272 50.0741 112.355 50.6681 112.355 51.7882C112.355 53.9943 112.023 54.5713 108.932 57.6769C106.621 59.9849 105.608 60.9014 101.27 64.6519C93.275 71.5589 87.5575 75.6488 82.1392 78.3301C78.0505 80.3496 75.9563 81.1133 67.6793 83.591C63.8732 84.7281 59.9341 86.7985 55.3634 90.0399C54.5158 90.6338 53.8011 91.126 53.7678 91.126C53.7346 91.126 52.3218 90.2265 50.6265 89.1235ZM56.344 84.9996C59.8011 82.7425 63.1585 81.1133 66.1003 80.2648C78.4993 76.684 84.0506 73.9178 92.444 67.1296C93.8069 66.0265 95.3193 64.7876 95.7681 64.4143C96.2335 64.0239 97.9454 62.5645 99.5908 61.1729C105.375 56.2854 108.499 53.2137 108.749 52.1615C109.048 50.9736 108.15 49.582 106.871 49.2256C105.425 48.8183 104.394 49.3274 101.818 51.6863C97.0978 56.0308 91.9786 60.5959 91.347 61.0371C90.2667 61.7669 89.1199 61.5293 88.6212 60.4601C88.106 59.374 88.2223 59.2382 94.721 53.2816C98.0285 50.2438 100.804 47.6813 100.904 47.5964C101.004 47.4946 102.516 46.103 104.278 44.4908C106.921 42.047 107.519 41.4191 107.752 40.7912C108.433 38.9584 106.97 37.3292 104.644 37.3292C104.228 37.3292 103.63 37.4819 103.281 37.6686C102.732 37.9741 99.9565 40.4518 94.106 45.8824C87.6905 51.8391 85.1143 54.1131 84.5991 54.3168C84.0007 54.5543 83.0367 54.1301 82.6711 53.4852C82.0727 52.45 82.3054 52.0088 84.5824 50.0402C94.0396 41.7755 96.3332 39.7051 99.5908 36.4637C100.788 35.2758 102.366 33.7654 103.114 33.0866C103.862 32.4077 104.577 31.6101 104.693 31.3216C104.81 31.0331 104.909 30.2016 104.909 29.4888C104.909 27.9445 104.594 27.3675 103.563 27.0111C102.765 26.7226 101.07 26.8414 100.306 27.2487C98.9759 27.9275 96.3997 30.2525 86.8761 39.3657C77.6683 48.1734 78.3829 47.5285 77.4854 47.6473C76.804 47.7152 76.6876 47.6643 76.1558 47.1212C75.707 46.663 75.5741 46.3915 75.5741 45.8994C75.5741 45.3224 75.7403 45.1187 78.117 42.7768C79.4965 41.4022 82.7043 38.2965 85.214 35.8867C92.8927 28.4875 92.5271 28.8779 92.5271 27.9445C92.5271 26.9432 92.0617 25.9589 91.3304 25.4158C90.8816 25.0934 90.5658 25.0255 89.6185 25.0255C87.7071 25.0255 87.2584 25.3819 81.142 31.3725C80.1281 32.3568 78.2334 34.1727 76.9037 35.3776C73.4134 38.585 70.538 41.3173 67.5297 44.2532C65.0865 46.6291 64.8372 46.8327 64.272 46.8327C63.1418 46.8327 62.4105 45.8654 62.7762 44.8641C62.8759 44.6096 63.4909 43.8289 64.1391 43.1162C66.4327 40.6045 67.9951 37.7365 68.6266 34.9194C68.9591 33.426 68.9757 33.1375 68.7929 32.0683C68.6765 31.4065 68.4438 30.5749 68.2776 30.2355C67.5962 28.8779 66.0006 27.6729 64.887 27.656C64.1557 27.656 63.6903 28.2669 63.3579 29.6924C61.995 35.4794 59.4354 39.8239 53.236 46.8327C50.3772 50.0741 49.7789 50.8378 49.0974 52.0936C47.7179 54.6562 47.2359 56.7096 47.0032 61.2577C46.8703 63.8203 46.8204 64.1767 46.3717 65.2798C45.2082 68.0799 43.3966 70.1164 39.1583 73.3578C37.8453 74.376 36.7483 75.2585 36.7317 75.3094C36.6985 75.3773 37.4464 75.9203 38.3938 76.5313C39.3245 77.1252 41.9672 78.8562 44.2442 80.3497C52.3385 85.6784 53.6847 86.5439 53.8177 86.5439C53.9008 86.5439 55.031 85.8481 56.344 84.9996Z" fill="#E8552D"/>
<defs>
<filter id="filter0_d_2_123" x="30.1777" y="23.1583" width="84" height="73.5" filterUnits="userSpaceOnUse" color-interpolation-filters="sRGB">
<feFlood flood-opacity="0" result="BackgroundImageFix"/>
<feColorMatrix in="SourceAlpha" type="matrix" values="0 0 0 0 0 0 0 0 0 0 0 0 0 0 0 0 0 0 127 0" result="hardAlpha"/>
<feOffset dy="4"/>
<feGaussianBlur stdDeviation="2"/>
<feComposite in2="hardAlpha" operator="out"/>
<feColorMatrix type="matrix" values="0 0 0 0 0 0 0 0 0 0 0 0 0 0 0 0 0 0 0.25 0"/>
<feBlend mode="normal" in2="BackgroundImageFix" result="effect1_dropShadow_2_123"/>
<feBlend mode="normal" in="SourceGraphic" in2="effect1_dropShadow_2_123" result="shape"/>
</filter>
</defs>
</svg>
